<svg width="27" height="27" viewBox="0 0 27 27" fill="none" xmlns="http://www.w3.org/2000/svg">
<path d="M1 13.4121C1 20.3159 6.59625 25.9121 13.5 25.9121C20.4037 25.9121 26 20.3159 26 13.4121C26 6.50836 20.4037 0.912109 13.5 0.912109C6.59625 0.912109 1 6.50836 1 13.4121Z" stroke="#F2ECE0" stroke-width="1.5" stroke-linecap="round" stroke-linejoin="round"/>
<path d="M14.7499 0.974609C14.7499 0.974609 18.4999 5.91211 18.4999 13.4121C18.4999 20.9121 14.7499 25.8496 14.7499 25.8496M12.2499 25.8496C12.2499 25.8496 8.49985 20.9121 8.49985 13.4121C8.49985 5.91211 12.2499 0.974609 12.2499 0.974609M1.78735 17.7871H25.2124M1.78735 9.03711H25.2124" stroke="#F2ECE0" stroke-width="1.5" stroke-linecap="round" stroke-linejoin="round"/>
</svg>
