<svg width="20" height="21" viewBox="0 0 20 21" fill="none" xmlns="http://www.w3.org/2000/svg">
<path d="M4.11566 15.509L15.9547 15.5M9.95466 1.5C11.8727 1.5 13.4747 2.85 13.8647 4.651C14.3718 4.51377 14.9009 4.47776 15.4219 4.54503C15.943 4.61231 16.4456 4.78154 16.9012 5.04308C17.3568 5.30462 17.7565 5.65333 18.0773 6.06931C18.3982 6.4853 18.6339 6.9604 18.7712 7.4675C18.9084 7.9746 18.9444 8.50376 18.8771 9.02478C18.8099 9.54579 18.6406 10.0485 18.3791 10.5041C18.1175 10.9597 17.7688 11.3593 17.3528 11.6802C16.9369 12.001 16.4618 12.2368 15.9547 12.374V19.5H3.95466V12.374C3.44756 12.2366 2.97248 12.0007 2.55655 11.6798C2.14062 11.3588 1.79198 10.9591 1.53054 10.5034C1.26909 10.0477 1.09997 9.54492 1.03281 9.02385C0.965663 8.50279 1.0018 7.9736 1.13916 7.4665C1.27653 6.9594 1.51242 6.48432 1.83339 6.06839C2.15435 5.65246 2.5541 5.30382 3.0098 5.04237C3.46551 4.78093 3.96824 4.6118 4.48931 4.54465C5.01037 4.4775 5.53956 4.51364 6.04666 4.651C6.2405 3.75857 6.73388 2.95933 7.44481 2.38611C8.15574 1.81289 9.04142 1.5002 9.95466 1.5Z" stroke="#F2ECE0" stroke-width="2" stroke-linecap="round" stroke-linejoin="round"/>
</svg>
